<svg xmlns="http://www.w3.org/2000/svg" xmlns:xlink="http://www.w3.org/1999/xlink" version="1.1" width="1248" height="1064"><g id="Boiling System App Diagram"><g id="Boiling System"><rect width="1184" height="1000" rx="8" ry="8" fill-opacity="0.02" fill="#000000" stroke-opacity="1" stroke-width="2" stroke="#cfd2d2" opacity="1" x="32" y="32"></rect><text font-family="IBM Plex Sans Medium, Arial, sans-serif" font-size="15" font-weight="500" fill="#0c0d0d" opacity="1" x="48" y="63.375"><tspan dy="0" x="48">Boiling System</tspan></text><g id="System" opacity="1"><text font-family="Courier New, monospace" font-size="12" text-anchor="middle" fill="#595f61" x="624" y="1020.6552734375"><tspan dy="0" x="624">System</tspan></text></g></g><g id="Connection"><polyline points="544,216 544,328" fill="none" stroke-width="1" stroke="#adb3b3" opacity="1"></polyline></g><g id="Connection"><polyline points="544,456 544,480 543.38,489.05 541.56,497.05 538.61,504.05 534.59,510.11 529.56,515.28 523.59,519.62 516.73,523.18 509.05999999999995,526.02 500.62,528.19 481.75,530.76 471.41999999999996,531.26 449.33000000000004,531 413.52,528.25 326.27,518.59 291.4,516.67 270.25,517.24 260.5,518.25 242.94000000000005,521.98 235.26999999999998,524.82 228.40999999999997,528.38 222.44000000000005,532.72 217.40999999999997,537.89 213.39,543.95 210.44000000000005,550.95 208.62,558.95 208,568 208,592" fill="none" stroke-width="1" stroke="#adb3b3" opacity="1"></polyline></g><g id="Sends data to"><polyline points="208,720 208,744 208.73000000000002,755.43 210.87,765.05 214.30999999999995,772.96 218.96000000000004,779.31 224.72000000000003,784.2 231.49,787.78 239.19000000000005,790.17 247.70000000000005,791.49 256.94000000000005,791.86 277.21000000000004,790.28 299.22,786.45 356.78,773.55 378.78999999999996,769.72 389.19000000000005,768.58 399.05999999999995,768.14 408.29999999999995,768.51 416.80999999999995,769.83 424.51,772.22 431.28,775.8 437.03999999999996,780.69 441.69000000000005,787.04 445.13,794.95 447.27,804.57 448,816 448,840" fill="none" stroke-width="1" stroke="#adb3b3" opacity="1"></polyline></g><g id="Sends data to"><rect width="99.836" height="22.2" x="278.0871772722208" y="768.898839700979" rx="4" ry="4" fill-opacity="0.8" fill="#e5e7e8" stroke-opacity="1" stroke-width="1" stroke="#cfd2d2" opacity="0.8"></rect><g opacity="1" fill="#434647"><text font-family="IBM Plex Sans Medium, Arial, sans-serif" font-size="14" text-anchor="middle" x="328.0051772722208" y="785.2488397009791"><tspan dy="0" x="328.0051772722208">Sends data to</tspan></text></g></g><g id="Sends data to"><polyline points="336,656 402.54999999999995,655.34 426.70000000000005,653.71 453.29999999999995,650.29 467.85,649.12 503.15,648.08 544,648" fill="none" stroke-width="1" stroke="#adb3b3" opacity="1"></polyline></g><g id="Sends data to"><rect width="99.836" height="22.2" x="390.0840541619445" y="640.8997358934643" rx="4" ry="4" fill-opacity="0.8" fill="#e5e7e8" stroke-opacity="1" stroke-width="1" stroke="#cfd2d2" opacity="0.8"></rect><g opacity="1" fill="#434647"><text font-family="IBM Plex Sans Medium, Arial, sans-serif" font-size="14" text-anchor="middle" x="440.0020541619445" y="657.2497358934644"><tspan dy="0" x="440.0020541619445">Sends data to</tspan></text></g></g><g id="Sends data to"><polyline points="1040,400 1039.79,434.89 1038.09,456.17 1034.75,476.71 1032.48,486.68 1026.78,505.99 1019.5699999999999,524.38 1015.4100000000001,533.22 1006.04,550.11 1000.8299999999999,558.14 989.4100000000001,573.37 976.7,587.39 962.75,600.14 955.3299999999999,606.02 939.6199999999999,616.72 922.8,625.98 913.99,630.04 895.6199999999999,636.99 876.27,642.31 856,645.92 834.8699999999999,647.77 800,648" fill="none" stroke-width="1" stroke="#adb3b3" opacity="1"></polyline></g><g id="Sends data to"><rect width="99.836" height="22.2" x="930.51715049341" y="572.1698733345706" rx="4" ry="4" fill-opacity="0.8" fill="#e5e7e8" stroke-opacity="1" stroke-width="1" stroke="#cfd2d2" opacity="0.8"></rect><g opacity="1" fill="#434647"><text font-family="IBM Plex Sans Medium, Arial, sans-serif" font-size="14" text-anchor="middle" x="980.43515049341" y="588.5198733345705"><tspan dy="0" x="980.43515049341">Sends data to</tspan></text></g></g><a href="https://app.icepanel.io/landscapes/I29qfKhIBoiKsz9rJ0YF/versions/latest/model/objects?object=ouJJQIjVQG&amp;focus=ouJJQIjVQG" id="Nginx" target="_blank"><rect width="256" height="128" rx="8" ry="8" fill-opacity="0.8" fill="#f5f6f6" stroke-opacity="1" stroke-width="1" stroke="#adb3b3" opacity="1" x="416" y="88"></rect><text font-family="IBM Plex Sans Medium, Arial, sans-serif" font-size="24" font-weight="500" text-anchor="middle" fill="#0c0d0d" opacity="1" x="544.0000000000001" y="156.99999999999997"><tspan dy="0" x="544.0000000000001">Nginx</tspan></text><g id="App" opacity="1"><text font-family="Courier New, monospace" font-size="12" text-anchor="middle" fill="#595f61" x="544" y="204.6552734375"><tspan dy="0" x="544">App</tspan></text></g></a><a href="https://app.icepanel.io/landscapes/I29qfKhIBoiKsz9rJ0YF/versions/latest/model/objects?object=VRQJlNIxOZ&amp;focus=VRQJlNIxOZ" id="Boiler Telemetry CRUD Service" target="_blank"><rect width="256" height="128" rx="8" ry="8" fill-opacity="0.8" fill="#f5f6f6" stroke-opacity="1" stroke-width="1" stroke="#adb3b3" opacity="1" x="80" y="592"></rect><text font-family="IBM Plex Sans Medium, Arial, sans-serif" font-size="24" font-weight="500" text-anchor="middle" fill="#0c0d0d" opacity="1" x="208" y="648.0000000000001"><tspan dy="0" x="208">Boiler Telemetry</tspan></text><text font-family="IBM Plex Sans Medium, Arial, sans-serif" font-size="24" font-weight="500" text-anchor="middle" fill="#0c0d0d" opacity="1" x="208" y="674.0000000000001"><tspan dy="0" x="208">CRUD Service</tspan></text><g id="App" opacity="1"><text font-family="Courier New, monospace" font-size="12" text-anchor="middle" fill="#595f61" x="208" y="708.6552734375"><tspan dy="0" x="208">App</tspan></text></g></a><a href="https://app.icepanel.io/landscapes/I29qfKhIBoiKsz9rJ0YF/versions/latest/model/objects?object=yBDjlMBdjX&amp;focus=yBDjlMBdjX" id="Service Discovery" target="_blank"><rect width="256" height="128" rx="8" ry="8" fill-opacity="0.8" fill="#f5f6f6" stroke-opacity="1" stroke-width="1" stroke="#adb3b3" opacity="1" x="416" y="328"></rect><text font-family="IBM Plex Sans Medium, Arial, sans-serif" font-size="24" font-weight="500" text-anchor="middle" fill="#0c0d0d" opacity="1" x="544.0000000000002" y="397"><tspan dy="0" x="544.0000000000002">Service Discovery</tspan></text><g id="App" opacity="1"><text font-family="Courier New, monospace" font-size="12" text-anchor="middle" fill="#595f61" x="544" y="444.6552734375"><tspan dy="0" x="544">App</tspan></text></g></a><a href="https://app.icepanel.io/landscapes/I29qfKhIBoiKsz9rJ0YF/versions/latest/model/objects?object=ysiOdSPP5u&amp;focus=ysiOdSPP5u" id="Link" target="_blank"><path d="M320 849C320 837 576 837 576 849L576 953Q448 978 320 953L320 849Z " fill-opacity="0.8" fill="#f5f6f6" opacity="1"></path><path d="M320 849C320 837 576 837 576 849C576 861 320 861 320 849Z " fill="#cfd2d2" opacity="1"></path><path d="M320 849C320 837 576 837 576 849L576 953Q448 978 320 953L320 849Z " fill-opacity="0" stroke-width="1" stroke="#adb3b3" opacity="1"></path><text font-family="IBM Plex Sans Medium, Arial, sans-serif" font-size="24" font-weight="500" text-anchor="middle" fill="#0c0d0d" opacity="1" x="448" y="913.0000000000001"><tspan dy="0" x="448">CockroachDB</tspan></text><g id="Store" opacity="1"><text font-family="Courier New, monospace" font-size="12" text-anchor="middle" fill="#595f61" x="448" y="954.6552734375"><tspan dy="0" x="448">Store</tspan></text></g></a><a href="https://app.icepanel.io/landscapes/I29qfKhIBoiKsz9rJ0YF/versions/latest/model/objects?object=zaEcohQnll&amp;focus=zaEcohQnll" id="Kafka" target="_blank"><rect width="256" height="128" rx="8" ry="8" fill-opacity="0.8" fill="#f5f6f6" stroke-opacity="1" stroke-width="1" stroke="#adb3b3" opacity="1" x="544" y="584"></rect><text font-family="IBM Plex Sans Medium, Arial, sans-serif" font-size="24" font-weight="500" text-anchor="middle" fill="#0c0d0d" opacity="1" x="672" y="653.0000000000001"><tspan dy="0" x="672">Kafka</tspan></text><g id="App" opacity="1"><text font-family="Courier New, monospace" font-size="12" text-anchor="middle" fill="#595f61" x="672" y="700.6552734375"><tspan dy="0" x="672">App</tspan></text></g></a><a href="https://app.icepanel.io/landscapes/I29qfKhIBoiKsz9rJ0YF/versions/latest/model/objects?object=VogfwTTRCn&amp;focus=VogfwTTRCn" id="Notification Worker" target="_blank"><rect width="256" height="128" rx="8" ry="8" fill-opacity="0.8" fill="#f5f6f6" stroke-opacity="1" stroke-width="1" stroke="#adb3b3" opacity="1" x="912" y="272"></rect><text font-family="IBM Plex Sans Medium, Arial, sans-serif" font-size="24" font-weight="500" text-anchor="middle" fill="#0c0d0d" opacity="1" x="1040" y="341"><tspan dy="0" x="1040">Notification Worker</tspan></text><g id="App" opacity="1"><text font-family="Courier New, monospace" font-size="12" text-anchor="middle" fill="#595f61" x="1040" y="388.6552734375"><tspan dy="0" x="1040">App</tspan></text></g></a><g id="Connection"><circle r="4" fill="#adb3b3" opacity="1" cx="544" cy="328"></circle><circle r="4" fill="#adb3b3" opacity="1" cx="544" cy="216"></circle></g><g id="Connection"><circle r="4" fill="#adb3b3" opacity="1" cx="208" cy="592"></circle><circle r="4" fill="#adb3b3" opacity="1" cx="544" cy="456"></circle></g><g id="Sends data to"><polygon points="384,760 376,776 392,776 384,760" fill="#adb3b3" opacity="1" transform="matrix(-1,1.2246467991473532e-16,-1.2246467991473532e-16,-1,832.0000000000001,1600)"></polygon><circle r="4" fill="#adb3b3" opacity="1" cx="208" cy="720"></circle></g><g id="Sends data to"><polygon points="536.0626221553812,576.0783965872297 528.0626221553812,592.0783965872297 544.0626221553812,592.0783965872297 536.0626221553812,576.0783965872297" fill="#adb3b3" opacity="1" transform="matrix(0.0019583805774715654,0.9999980823709183,-0.9999980823709183,0.0019583805774715654,1119.0274772550051,110.81022507091546)"></polygon><circle r="4" fill="#adb3b3" opacity="1" cx="336" cy="656"></circle></g><g id="Sends data to"><polygon points="743.7894569619833,639.7354725523435 735.7894569619833,655.7354725523435 751.7894569619833,655.7354725523435 743.7894569619833,639.7354725523435" fill="#adb3b3" opacity="1" transform="matrix(-0.00659578425417443,-0.9999782475784522,0.9999782475784522,-0.00659578425417443,165.1843180319853,1395.9928348968706)"></polygon><circle r="4" fill="#adb3b3" opacity="1" cx="1040" cy="400"></circle></g></g></svg>