<svg xmlns="http://www.w3.org/2000/svg" xmlns:xlink="http://www.w3.org/1999/xlink" version="1.1" width="768" height="424"><g id="Context Diagram"><g id="Sends data to"><polyline points="480,332 413.3699999999999,331.58000000000004 354.6300000000001,328.41999999999996 288,328" fill="none" stroke-width="1" stroke="#adb3b3" opacity="1"></polyline></g><g id="Sends data to"><rect width="99.836" height="22.2" x="334.082" y="318.9" rx="4" ry="4" fill-opacity="0.8" fill="#e5e7e8" stroke-opacity="1" stroke-width="1" stroke="#cfd2d2" opacity="0.8"></rect><g opacity="1" fill="#434647"><text font-family="IBM Plex Sans Medium, Arial, sans-serif" font-size="14" text-anchor="middle" x="384" y="335.25"><tspan dy="0" x="384">Sends data to</tspan></text></g></g><g id="Sends data to"><polyline points="160,264 160,160" fill="none" stroke-width="1" stroke="#adb3b3" opacity="1"></polyline></g><g id="Sends data to"><rect width="99.836" height="22.2" x="110.082" y="200.9" rx="4" ry="4" fill-opacity="0.8" fill="#e5e7e8" stroke-opacity="1" stroke-width="1" stroke="#cfd2d2" opacity="0.8"></rect><g opacity="1" fill="#434647"><text font-family="IBM Plex Sans Medium, Arial, sans-serif" font-size="14" text-anchor="middle" x="160" y="217.24999999999997"><tspan dy="0" x="160">Sends data to</tspan></text></g></g><a href="https://app.icepanel.io/landscapes/I29qfKhIBoiKsz9rJ0YF/versions/latest/model/objects?object=16OtyCDAaB&amp;focus=16OtyCDAaB" id="Boiling System" target="_blank"><rect width="256" height="128" rx="8" ry="8" fill-opacity="0.8" fill="#f5f6f6" stroke-opacity="1" stroke-width="1" stroke="#adb3b3" opacity="1" x="32" y="264"></rect><text font-family="IBM Plex Sans Medium, Arial, sans-serif" font-size="24" font-weight="500" text-anchor="middle" fill="#0c0d0d" opacity="1" x="160" y="333"><tspan dy="0" x="160">Boiling System</tspan></text><g id="System" opacity="1"><text font-family="Courier New, monospace" font-size="12" text-anchor="middle" fill="#595f61" x="160" y="380.6552734375"><tspan dy="0" x="160">System</tspan></text></g></a><a href="https://app.icepanel.io/landscapes/I29qfKhIBoiKsz9rJ0YF/versions/latest/model/objects?object=De3QV0Plmt&amp;focus=De3QV0Plmt" id="Boiler" target="_blank"><rect width="56" height="56" rx="8" ry="8" fill-opacity="0.8" fill="#f5f6f6" stroke-opacity="1" stroke-width="1" stroke="#adb3b3" opacity="1" x="580" y="216"></rect><rect width="256" height="96" rx="8" ry="8" fill-opacity="0.8" fill="#f5f6f6" stroke-opacity="1" stroke-width="1" stroke="#adb3b3" opacity="1" x="480" y="280"></rect><path d="M608 245.71428571428572C611.7875 245.71428571428572 614.8571428571429 242.64464285714286 614.8571428571429 238.85714285714286C614.8571428571429 235.06964285714287 611.7875 232 608 232C604.2125 232 601.1428571428571 235.06964285714287 601.1428571428571 238.85714285714286C601.1428571428571 242.64464285714286 604.2125 245.71428571428572 608 245.71428571428572ZM612.8 247.42857142857142L611.9053571428572 247.42857142857142C610.7160714285715 247.975 609.3928571428571 248.28571428571428 608 248.28571428571428C606.6071428571429 248.28571428571428 605.2892857142857 247.975 604.0946428571428 247.42857142857142L603.2 247.42857142857142C599.225 247.42857142857142 596 250.6535714285714 596 254.62857142857143L596 256.8571428571429C596 258.2767857142857 597.1517857142857 259.42857142857144 598.5714285714286 259.42857142857144L617.4285714285714 259.42857142857144C618.8482142857142 259.42857142857144 620 258.2767857142857 620 256.8571428571429L620 254.62857142857143C620 250.6535714285714 616.775 247.42857142857142 612.8 247.42857142857142Z " fill="#0c0d0d" opacity="1"></path><text font-family="IBM Plex Sans Medium, Arial, sans-serif" font-size="24" font-weight="500" text-anchor="middle" fill="#0c0d0d" opacity="1" x="608" y="328"><tspan dy="0" x="608">Boiler</tspan></text><g id="Actor" opacity="1"><text font-family="Courier New, monospace" font-size="12" text-anchor="middle" fill="#595f61" x="608" y="364.6552734375"><tspan dy="0" x="608">Actor</tspan></text></g></a><a href="https://app.icepanel.io/landscapes/I29qfKhIBoiKsz9rJ0YF/versions/latest/model/objects?object=bfAmYx9YuM&amp;focus=bfAmYx9YuM" id="Notification clients" target="_blank"><rect width="256" height="128" rx="8" ry="8" fill-opacity="0.8" fill="#f5f6f6" stroke-opacity="1" stroke-width="1" stroke="#adb3b3" opacity="1" x="32" y="32"></rect><text font-family="IBM Plex Sans Medium, Arial, sans-serif" font-size="24" font-weight="500" text-anchor="middle" fill="#0c0d0d" opacity="1" x="160" y="101"><tspan dy="0" x="160">Notification clients</tspan></text><g id="System" opacity="1"><text font-family="Courier New, monospace" font-size="12" text-anchor="middle" fill="#595f61" x="160" y="148.6552734375"><tspan dy="0" x="160">System</tspan></text></g></a><g id="Sends data to"><polygon points="232.2021837239086,320.2514979470444 224.2021837239086,336.2514979470444 240.2021837239086,336.2514979470444 232.2021837239086,320.2514979470444" fill="#adb3b3" opacity="1" transform="matrix(0.006303341680514449,-0.9999801337444952,0.9999801337444952,0.006303341680514449,-33.70878545193381,558.1789161207412)"></polygon><circle r="4" fill="#adb3b3" opacity="1" cx="480" cy="332"></circle></g><g id="Sends data to"><polygon points="160,160 152,176 168,176 160,160" fill="#adb3b3" opacity="1" transform="matrix(1,0,0,1,0,0)"></polygon><circle r="4" fill="#adb3b3" opacity="1" cx="160" cy="264"></circle></g></g></svg>